<svg version="1.1" xmlns="http://www.w3.org/2000/svg" xmlns:xlink="http://www.w3.org/1999/xlink" role="img" width="290" height="90" viewbox="0 0 290 90"><title>Non-local</title><desc>Generated by logo.svg, https://github.com/bubkoo/logo.svg</desc><path fill="#2b68a7" d="M-0.28 70.35L0.30 67.66L1.13 67.66Q3.24 67.66 4.94 66.86Q6.63 66.06 7.27 63.06L13.93 31.70Q14.18 30.67 14.18 29.90Q14.18 28.24 12.90 27.79Q11.62 27.34 9.58 27.34L8.74 27.34L9.32 24.66L20.97 24.66L36.46 59.98L42.47 31.70Q42.73 30.67 42.73 29.90Q42.73 28.24 41.45 27.79Q40.17 27.34 38.12 27.34L37.29 27.34L37.86 24.66L53.93 24.66L53.35 27.34L52.52 27.34Q50.34 27.34 48.65 28.14Q46.95 28.94 46.31 31.95L38.18 70.35L34.02 70.35L17.58 32.85L11.11 63.31Q10.86 64.34 10.86 65.10Q10.86 66.77 12.14 67.22Q13.42 67.66 15.46 67.66L16.30 67.66L15.72 70.35L-0.28 70.35ZM64.87 70.99Q59.43 70.99 56.01 67.70Q52.58 64.40 52.58 57.74Q52.58 54.22 53.74 50.32Q54.89 46.42 57.26 43.02Q59.62 39.63 63.21 37.52Q66.79 35.41 71.66 35.41Q75.05 35.41 77.80 36.75Q80.55 38.10 82.18 41.04Q83.82 43.98 83.82 48.66Q83.82 51.41 83.11 54.45Q82.41 57.49 80.94 60.43Q79.46 63.38 77.22 65.74Q74.98 68.11 71.88 69.55Q68.78 70.99 64.87 70.99M65.58 67.73Q68.71 67.73 70.92 65.71Q73.13 63.70 74.50 60.53Q75.88 57.36 76.52 53.90Q77.16 50.45 77.16 47.57Q77.16 42.77 75.50 40.72Q73.83 38.67 70.89 38.67Q68.39 38.67 66.47 40.02Q64.55 41.36 63.18 43.57Q61.80 45.78 60.94 48.46Q60.07 51.15 59.66 53.87Q59.24 56.59 59.24 58.90Q59.24 63.76 60.97 65.74Q62.70 67.73 65.58 67.73ZM116.01 70.99Q113.19 70.99 111.69 69.20Q110.18 67.41 110.18 64.59Q110.18 61.65 111.40 55.95L112.49 50.96Q112.68 50.13 113.00 48.75Q113.32 47.38 113.58 45.94Q113.83 44.50 113.83 43.34Q113.83 42.06 113.29 40.82Q112.74 39.57 110.89 39.57Q108.84 39.57 106.89 41.04Q104.94 42.51 103.24 44.82Q101.54 47.12 100.36 49.58Q99.18 52.05 98.79 53.97L95.34 70.35L89.38 70.35L94.76 44.62Q94.95 43.73 95.05 42.90Q95.14 42.06 95.14 41.74Q95.14 39.82 93.80 39.28Q92.46 38.74 90.66 38.74L90.15 38.74L90.73 36.05L102.57 36.05L100.84 44.11L101.48 44.11Q104.10 39.89 106.82 37.68Q109.54 35.47 113.13 35.47Q116.90 35.47 118.44 37.62Q119.98 39.76 119.98 42.58Q119.98 44.18 119.56 46.06Q119.14 47.95 118.82 49.62L117.16 57.17Q116.78 58.96 116.55 60.69Q116.33 62.42 116.33 63.89Q116.33 66.96 118.57 66.96Q120.42 66.96 122.66 65.49L123.82 67.34Q122.28 68.62 120.39 69.81Q118.50 70.99 116.01 70.99ZM125.80 55.31L126.82 50.51L143.46 50.51L142.44 55.31L125.80 55.31ZM154.73 70.99Q152.17 70.99 150.79 69.20Q149.42 67.41 149.42 64.91Q149.42 63.57 149.67 61.71Q149.93 59.86 150.25 58Q150.57 56.14 150.82 54.86L156.07 30.29Q156.26 29.39 156.36 28.56Q156.46 27.73 156.46 27.41Q156.46 25.49 155.14 24.94Q153.83 24.40 151.98 24.40L151.21 24.40L151.78 21.71L163.88 21.71L156.46 56.59Q156.26 57.30 156.04 58.64Q155.82 59.98 155.62 61.39Q155.43 62.80 155.43 63.70Q155.43 66.96 157.54 66.96Q158.57 66.96 159.75 66.48Q160.94 66 162.15 65.30L163.30 67.15Q161.90 68.43 159.53 69.71Q157.16 70.99 154.73 70.99ZM179.24 70.99Q173.80 70.99 170.38 67.70Q166.95 64.40 166.95 57.74Q166.95 54.22 168.10 50.32Q169.26 46.42 171.62 43.02Q173.99 39.63 177.58 37.52Q181.16 35.41 186.02 35.41Q189.42 35.41 192.17 36.75Q194.92 38.10 196.55 41.04Q198.18 43.98 198.18 48.66Q198.18 51.41 197.48 54.45Q196.78 57.49 195.30 60.43Q193.83 63.38 191.59 65.74Q189.35 68.11 186.25 69.55Q183.14 70.99 179.24 70.99M179.94 67.73Q183.08 67.73 185.29 65.71Q187.50 63.70 188.87 60.53Q190.25 57.36 190.89 53.90Q191.53 50.45 191.53 47.57Q191.53 42.77 189.86 40.72Q188.20 38.67 185.26 38.67Q182.76 38.67 180.84 40.02Q178.92 41.36 177.54 43.57Q176.17 45.78 175.30 48.46Q174.44 51.15 174.02 53.87Q173.61 56.59 173.61 58.90Q173.61 63.76 175.34 65.74Q177.06 67.73 179.94 67.73ZM216.17 70.99Q212.71 70.99 209.90 69.52Q207.08 68.05 205.38 65.14Q203.69 62.22 203.69 57.74Q203.69 54.22 204.90 50.32Q206.12 46.42 208.55 43.02Q210.98 39.63 214.54 37.52Q218.09 35.41 222.76 35.41Q227.56 35.41 229.83 37.30Q232.10 39.18 232.10 41.55Q232.10 43.34 230.63 44.69Q229.16 46.03 226.41 46.03Q226.41 42.96 225.22 40.72Q224.04 38.48 221.48 38.48Q219.43 38.48 217.70 39.86Q215.98 41.23 214.60 43.44Q213.22 45.65 212.30 48.30Q211.37 50.96 210.86 53.58Q210.34 56.21 210.34 58.26Q210.34 62.42 212.14 64.69Q213.93 66.96 217.38 66.96Q220.78 66.96 223.02 65.49Q225.26 64.02 226.60 62.35Q227.24 62.80 227.24 63.95Q227.24 65.36 226.06 66.99Q224.87 68.62 222.44 69.81Q220.01 70.99 216.17 70.99ZM243.11 70.99Q240.30 70.99 238.44 69.46Q236.58 67.92 235.72 65.26Q234.86 62.61 234.86 59.28Q234.86 56.27 235.66 52.98Q236.46 49.68 238.06 46.58Q239.66 43.47 241.96 40.94Q244.26 38.42 247.27 36.91Q250.28 35.41 253.93 35.41Q256.23 35.41 258.18 36.05Q260.14 36.69 261.42 37.71L264.23 36.11L266.28 36.11L261.93 56.59Q261.80 57.30 261.54 58.64Q261.29 59.98 261.13 61.39Q260.97 62.80 260.97 63.70Q260.97 66.96 263.08 66.96Q264.10 66.96 265.29 66.48Q266.47 66 267.69 65.30L268.84 67.15Q267.94 67.98 266.41 68.88Q264.87 69.78 263.14 70.38Q261.42 70.99 259.82 70.99Q257.51 70.99 256.17 69.58Q254.82 68.18 254.82 65.68Q254.82 64.40 254.98 63.34Q255.14 62.29 255.46 60.69L255.08 60.69Q252.84 65.62 249.86 68.30Q246.89 70.99 243.11 70.99M245.42 66.96Q247.08 66.96 248.84 65.68Q250.60 64.40 252.17 62.22Q253.74 60.05 254.95 57.36Q256.17 54.67 256.74 51.92L259.11 40.59Q258.41 39.44 257.06 38.86Q255.72 38.29 254.25 38.29Q251.69 38.29 249.64 39.73Q247.59 41.17 246.06 43.54Q244.52 45.90 243.46 48.72Q242.41 51.54 241.90 54.38Q241.38 57.23 241.38 59.54Q241.38 63.50 242.54 65.23Q243.69 66.96 245.42 66.96ZM279.14 70.99Q276.58 70.99 275.21 69.20Q273.83 67.41 273.83 64.91Q273.83 63.57 274.09 61.71Q274.34 59.86 274.66 58Q274.98 56.14 275.24 54.86L280.49 30.29Q280.68 29.39 280.78 28.56Q280.87 27.73 280.87 27.41Q280.87 25.49 279.56 24.94Q278.25 24.40 276.39 24.40L275.62 24.40L276.20 21.71L288.30 21.71L280.87 56.59Q280.68 57.30 280.46 58.64Q280.23 59.98 280.04 61.39Q279.85 62.80 279.85 63.70Q279.85 66.96 281.96 66.96Q282.98 66.96 284.17 66.48Q285.35 66 286.57 65.30L287.72 67.15Q286.31 68.43 283.94 69.71Q281.58 70.99 279.14 70.99Z"></path></svg>