<svg version="1.1" xmlns="http://www.w3.org/2000/svg" xmlns:xlink="http://www.w3.org/1999/xlink" role="img" width="271" height="90" viewbox="0 0 271 90"><title>SlowFast</title><desc>Generated by logo.svg, https://github.com/bubkoo/logo.svg</desc><path fill="#2b68a7" d="M15.66 70.99Q10.98 70.99 7.82 69.74Q4.65 68.50 3.05 66.42Q1.45 64.34 1.45 61.84Q1.45 59.41 2.98 58.19Q4.52 56.98 6.38 56.98Q6.38 59.92 7.43 62.38Q8.49 64.85 10.63 66.35Q12.78 67.86 16.10 67.86Q20.58 67.86 23.21 65.62Q25.83 63.38 25.83 59.60Q25.83 57.68 25.26 56.14Q24.68 54.61 22.95 53.07Q21.22 51.54 17.77 49.55Q13.74 47.25 11.21 44.24Q8.68 41.23 8.68 36.37Q8.68 32.72 10.54 29.94Q12.39 27.15 15.88 25.58Q19.37 24.02 24.23 24.02Q29.80 24.02 33.10 25.94Q36.39 27.86 36.39 30.93Q36.39 32.91 35.05 34.13Q33.70 35.34 30.76 35.34Q30.76 33.62 30.18 31.73Q29.61 29.84 28.10 28.53Q26.60 27.22 23.72 27.22Q21.48 27.22 19.50 28.08Q17.51 28.94 16.26 30.74Q15.02 32.53 15.02 35.28Q15.02 37.65 15.88 39.25Q16.74 40.85 18.54 42.19Q20.33 43.54 22.95 45.07Q27.75 47.82 30.09 50.77Q32.42 53.71 32.42 57.55Q32.42 63.95 27.94 67.47Q23.46 70.99 15.66 70.99ZM45.80 70.99Q43.24 70.99 41.86 69.20Q40.49 67.41 40.49 64.91Q40.49 63.57 40.74 61.71Q41 59.86 41.32 58Q41.64 56.14 41.90 54.86L47.14 30.29Q47.34 29.39 47.43 28.56Q47.53 27.73 47.53 27.41Q47.53 25.49 46.22 24.94Q44.90 24.40 43.05 24.40L42.28 24.40L42.86 21.71L54.95 21.71L47.53 56.59Q47.34 57.30 47.11 58.64Q46.89 59.98 46.70 61.39Q46.50 62.80 46.50 63.70Q46.50 66.96 48.62 66.96Q49.64 66.96 50.82 66.48Q52.01 66 53.22 65.30L54.38 67.15Q52.97 68.43 50.60 69.71Q48.23 70.99 45.80 70.99ZM70.31 70.99Q64.87 70.99 61.45 67.70Q58.02 64.40 58.02 57.74Q58.02 54.22 59.18 50.32Q60.33 46.42 62.70 43.02Q65.06 39.63 68.65 37.52Q72.23 35.41 77.10 35.41Q80.49 35.41 83.24 36.75Q85.99 38.10 87.62 41.04Q89.26 43.98 89.26 48.66Q89.26 51.41 88.55 54.45Q87.85 57.49 86.38 60.43Q84.90 63.38 82.66 65.74Q80.42 68.11 77.32 69.55Q74.22 70.99 70.31 70.99M71.02 67.73Q74.15 67.73 76.36 65.71Q78.57 63.70 79.94 60.53Q81.32 57.36 81.96 53.90Q82.60 50.45 82.60 47.57Q82.60 42.77 80.94 40.72Q79.27 38.67 76.33 38.67Q73.83 38.67 71.91 40.02Q69.99 41.36 68.62 43.57Q67.24 45.78 66.38 48.46Q65.51 51.15 65.10 53.87Q64.68 56.59 64.68 58.90Q64.68 63.76 66.41 65.74Q68.14 67.73 71.02 67.73ZM120.74 70.99Q120.74 68.05 120.62 64.11Q120.49 60.18 120.30 56.08Q120.10 51.98 119.98 48.59Q119.85 45.20 119.78 43.28Q119.46 44.18 118.47 46.26Q117.48 48.34 116.14 51.09Q114.79 53.84 113.26 56.82Q111.72 59.79 110.31 62.54Q108.90 65.30 107.82 67.31Q106.73 69.33 106.28 70.16L99.69 70.93L99.24 43.34Q99.18 40.40 98.02 39.57Q96.87 38.74 95.02 38.74L94.38 38.74L95.27 36.05L104.87 36.05Q104.94 40.53 105.00 45.65Q105.06 50.77 105.10 55.82Q105.13 60.88 105.13 65.23L105.38 65.23Q106.92 62.61 108.74 59.15Q110.57 55.70 112.52 51.86Q114.47 48.02 116.30 44.08Q118.12 40.14 119.59 36.62L124.90 36.37Q125.10 38.29 125.29 41.33Q125.48 44.37 125.64 47.92Q125.80 51.47 125.93 54.93Q126.06 58.38 126.15 61.23Q126.25 64.08 126.25 65.68L126.70 65.68Q128.87 63.06 130.98 59.98Q133.10 56.91 134.86 53.81Q136.62 50.70 137.67 47.92Q138.73 45.14 138.73 43.02Q138.73 41.42 137.99 40.53Q137.26 39.63 135.98 39.18Q136.17 37.65 137.16 36.53Q138.15 35.41 139.75 35.41Q141.35 35.41 142.25 36.59Q143.14 37.78 143.14 40.21Q143.14 43.98 141.13 48.53Q139.11 53.07 135.46 58.45Q131.82 63.82 127.08 70.29L120.74 70.99ZM143.08 70.35L143.59 67.66L144.42 67.66Q146.54 67.66 148.23 66.93Q149.93 66.19 150.63 63.38L157.35 31.70Q157.61 30.67 157.61 29.90Q157.61 28.24 156.33 27.79Q155.05 27.34 153 27.34L152.17 27.34L152.74 24.66L185 24.66L182.95 35.86L179.62 35.86Q179.75 34.77 179.85 33.58Q179.94 32.40 179.94 32.14Q179.94 30.29 178.89 29.07Q177.83 27.86 175.14 27.86L164.65 27.86L160.68 46.35L176.10 46.35L175.46 49.49L160.04 49.49L157.16 63.06Q156.97 63.95 156.97 64.66Q156.97 66.64 158.25 67.15Q159.53 67.66 161.38 67.66L163.50 67.66L162.98 70.35L143.08 70.35ZM190.63 70.99Q187.82 70.99 185.96 69.46Q184.10 67.92 183.24 65.26Q182.38 62.61 182.38 59.28Q182.38 56.27 183.18 52.98Q183.98 49.68 185.58 46.58Q187.18 43.47 189.48 40.94Q191.78 38.42 194.79 36.91Q197.80 35.41 201.45 35.41Q203.75 35.41 205.70 36.05Q207.66 36.69 208.94 37.71L211.75 36.11L213.80 36.11L209.45 56.59Q209.32 57.30 209.06 58.64Q208.81 59.98 208.65 61.39Q208.49 62.80 208.49 63.70Q208.49 66.96 210.60 66.96Q211.62 66.96 212.81 66.48Q213.99 66 215.21 65.30L216.36 67.15Q215.46 67.98 213.93 68.88Q212.39 69.78 210.66 70.38Q208.94 70.99 207.34 70.99Q205.03 70.99 203.69 69.58Q202.34 68.18 202.34 65.68Q202.34 64.40 202.50 63.34Q202.66 62.29 202.98 60.69L202.60 60.69Q200.36 65.62 197.38 68.30Q194.41 70.99 190.63 70.99M192.94 66.96Q194.60 66.96 196.36 65.68Q198.12 64.40 199.69 62.22Q201.26 60.05 202.47 57.36Q203.69 54.67 204.26 51.92L206.63 40.59Q205.93 39.44 204.58 38.86Q203.24 38.29 201.77 38.29Q199.21 38.29 197.16 39.73Q195.11 41.17 193.58 43.54Q192.04 45.90 190.98 48.72Q189.93 51.54 189.42 54.38Q188.90 57.23 188.90 59.54Q188.90 63.50 190.06 65.23Q191.21 66.96 192.94 66.96ZM228.84 70.99Q224.04 70.99 221.16 69.07Q218.28 67.15 218.28 63.76Q218.28 62.03 218.95 61.14Q219.62 60.24 220.58 59.89Q221.54 59.54 222.31 59.54Q222.31 61.78 223.02 63.70Q223.72 65.62 225.32 66.77Q226.92 67.92 229.61 67.92Q232.81 67.92 234.66 66.45Q236.52 64.98 236.52 61.97Q236.52 59.73 235.05 58.13Q233.58 56.53 230.06 54.93Q226.54 53.26 224.42 51.06Q222.31 48.85 222.31 45.01Q222.31 40.91 225.64 38.19Q228.97 35.47 234.66 35.47Q238.18 35.47 240.36 36.37Q242.54 37.26 243.59 38.67Q244.65 40.08 244.65 41.55Q244.65 43.60 243.34 44.56Q242.02 45.52 239.85 45.52Q239.85 43.86 239.30 42.19Q238.76 40.53 237.51 39.47Q236.26 38.42 234.09 38.42Q231.21 38.42 229.54 39.98Q227.88 41.55 227.88 43.92Q227.88 46.10 229.45 47.54Q231.02 48.98 234.41 50.51Q237.93 52.11 240.01 54.42Q242.09 56.72 242.09 60.43Q242.09 65.10 238.54 68.05Q234.98 70.99 228.84 70.99ZM258.09 70.99Q251.11 70.99 251.11 63.50Q251.11 62.35 251.30 60.85Q251.50 59.34 251.75 58.13L255.66 39.70L250.79 39.70L251.37 37.14Q254.12 37.14 256.68 35.12Q259.24 33.10 261.16 28.18L264.10 28.18L262.44 36.05L270.18 36.05L269.42 39.70L261.67 39.70L257.77 57.94Q257.45 59.54 257.22 60.98Q257 62.42 257 63.44Q257 65.30 257.90 66.13Q258.79 66.96 260.39 66.96Q261.74 66.96 263.14 66.54Q264.55 66.13 265.64 65.55L266.73 67.92Q264.81 69.26 262.63 70.13Q260.46 70.99 258.09 70.99Z"></path></svg>